<?xml version="1.0" encoding="utf-8"?>
<!-- Generator: Adobe Illustrator 24.2.3, SVG Export Plug-In . SVG Version: 6.00 Build 0)  -->
<svg version="1.1" id="Capa_1" xmlns="http://www.w3.org/2000/svg" xmlns:xlink="http://www.w3.org/1999/xlink" x="0px" y="0px"
	 viewBox="0 0 283.5 283.5" style="enable-background:new 0 0 283.5 283.5;" xml:space="preserve">
<style type="text/css">
	.st0{fill:none;stroke:#000000;stroke-width:4;stroke-miterlimit:10;}
	.st1{fill:none;stroke:#000000;stroke-width:3;stroke-miterlimit:10;}
</style>
<line class="st0" x1="141.8" y1="68.1" x2="141.8" y2="108.4"/>
<rect x="123.2" y="108.4" class="st0" width="37.2" height="65.8"/>
<line class="st1" x1="123.2" y1="139.2" x2="160.4" y2="139.2"/>
<line class="st0" x1="131.5" y1="67" x2="151.4" y2="67"/>
<line class="st0" x1="131.7" y1="208.4" x2="150.5" y2="208.4"/>
<line class="st0" x1="141.8" y1="175.5" x2="141.8" y2="208.4"/>
<line class="st0" x1="78.1" y1="56.7" x2="78.1" y2="117.9"/>
<rect x="59.5" y="117.9" class="st0" width="37.2" height="57.7"/>
<line class="st1" x1="59.5" y1="155.8" x2="96.8" y2="155.8"/>
<line class="st0" x1="69" y1="56.7" x2="87.8" y2="56.7"/>
<line class="st0" x1="69.1" y1="226.8" x2="87.2" y2="226.8"/>
<line class="st0" x1="78.4" y1="176.7" x2="78.4" y2="226.8"/>
<line class="st0" x1="205.5" y1="85.7" x2="205.5" y2="150"/>
<rect x="186.7" y="150" class="st0" width="37.2" height="42.9"/>
<line class="st1" x1="186.7" y1="176.9" x2="224" y2="176.9"/>
<line class="st0" x1="196.1" y1="86.9" x2="214.7" y2="86.9"/>
<line class="st0" x1="196.1" y1="220.5" x2="214.7" y2="220.5"/>
<line class="st0" x1="205.5" y1="192.9" x2="205.5" y2="220.5"/>
</svg>
