<?xml version="1.0" encoding="utf-8"?>
<!-- Generator: Adobe Illustrator 24.2.3, SVG Export Plug-In . SVG Version: 6.00 Build 0)  -->
<svg version="1.1" id="Capa_1" xmlns="http://www.w3.org/2000/svg" xmlns:xlink="http://www.w3.org/1999/xlink" x="0px" y="0px"
	 viewBox="0 0 283.5 283.5" style="enable-background:new 0 0 283.5 283.5;" xml:space="preserve">
<style type="text/css">
	.st0{fill:#424242;}
</style>
<g>
	<rect x="63.4" y="74.5" class="st0" width="11.3" height="27"/>
	<rect x="77.7" y="58.9" class="st0" width="11.3" height="42.5"/>
	<rect x="91.9" y="90.8" class="st0" width="11.3" height="10.6"/>
</g>
<rect x="63.4" y="136.1" class="st0" width="11.3" height="27"/>
<rect x="77.7" y="160.2" class="st0" width="11.3" height="2.8"/>
<rect x="91.9" y="152.4" class="st0" width="11.3" height="10.6"/>
<g>
	
		<rect x="91.9" y="197.6" transform="matrix(-1 -1.224647e-16 1.224647e-16 -1 195.1 422.1273)" class="st0" width="11.3" height="27"/>
	
		<rect x="77.7" y="182" transform="matrix(-1 -1.224647e-16 1.224647e-16 -1 166.6 406.6)" class="st0" width="11.3" height="42.5"/>
	
		<rect x="63.4" y="213.9" transform="matrix(-1 -1.224647e-16 1.224647e-16 -1 138.1 438.4897)" class="st0" width="11.3" height="10.6"/>
</g>
<rect x="121.9" y="74.5" class="st0" width="11.3" height="27"/>
<rect x="136.2" y="73.1" class="st0" width="11.3" height="28.3"/>
<rect x="150.4" y="90.8" class="st0" width="11.3" height="10.6"/>
<rect x="121.9" y="136.1" class="st0" width="11.3" height="27"/>
<rect x="136.2" y="120.5" class="st0" width="11.3" height="42.5"/>
<rect x="150.4" y="120.5" class="st0" width="11.3" height="42.5"/>
<rect x="121.9" y="210.4" class="st0" width="11.3" height="14.2"/>
<rect x="136.2" y="210.4" class="st0" width="11.3" height="14.2"/>
<rect x="150.4" y="213.9" class="st0" width="11.3" height="10.6"/>
<rect x="180.3" y="74.5" class="st0" width="11.3" height="27"/>
<rect x="194.6" y="58.9" class="st0" width="11.3" height="42.5"/>
<rect x="208.8" y="58.9" class="st0" width="11.3" height="42.5"/>
<rect x="180.3" y="129" class="st0" width="11.3" height="34"/>
<rect x="194.6" y="148.9" class="st0" width="11.3" height="14.2"/>
<rect x="208.8" y="152.4" class="st0" width="11.3" height="10.6"/>
<rect x="180.3" y="216.1" class="st0" width="11.3" height="8.5"/>
<rect x="194.6" y="182" class="st0" width="11.3" height="42.5"/>
<rect x="208.8" y="213.9" class="st0" width="11.3" height="10.6"/>
</svg>
